<svg width="14" height="14" viewBox="0 0 14 14" fill="none" xmlns="http://www.w3.org/2000/svg">
<g clip-path="url(#clip0_476_4521)">
<path d="M12.445 13.0004C12.445 13.3077 12.1967 13.556 11.8895 13.556H9.60502C9.22391 13.556 8.87335 13.3493 8.68891 13.016C8.50446 12.6832 8.51502 12.276 8.71613 11.9532C8.73279 11.926 11.2461 9.11154 11.2461 9.11154H9.11224C8.80502 9.11154 8.55668 8.86321 8.55668 8.55599C8.55668 8.24877 8.80502 8.00043 9.11224 8.00043H11.3967C11.7778 8.00043 12.1283 8.2071 12.3128 8.54043C12.4972 8.87321 12.4867 9.28043 12.2856 9.60321C12.2689 9.63043 9.75557 12.4449 9.75557 12.4449H11.8895C12.1967 12.4449 12.445 12.6932 12.445 13.0004ZM12.445 2.1671V5.22266C12.445 5.52988 12.1967 5.77821 11.8895 5.77821C11.5822 5.77821 11.3339 5.52988 11.3339 5.22266V4.11154H9.66724V5.22266C9.66724 5.52988 9.41891 5.77821 9.11168 5.77821C8.80446 5.77821 8.55613 5.52988 8.55613 5.22266V2.1671C8.55613 1.09488 9.42835 0.222656 10.5006 0.222656C11.5728 0.222656 12.445 1.09488 12.445 2.1671ZM11.3339 2.1671C11.3339 1.70766 10.96 1.33377 10.5006 1.33377C10.0411 1.33377 9.66724 1.70766 9.66724 2.1671V3.00043H11.3339V2.1671ZM5.94113 10.0599L4.11168 11.8893V0.778212C4.11168 0.47099 3.86335 0.222656 3.55613 0.222656C3.24891 0.222656 3.00057 0.47099 3.00057 0.778212V11.8893L1.17113 10.0599C0.953906 9.84266 0.602795 9.84266 0.385573 10.0599C0.168351 10.2771 0.168351 10.6282 0.385573 10.8454L2.77057 13.2304C2.98724 13.4471 3.27168 13.5554 3.55613 13.5554C3.84057 13.5554 4.12502 13.4471 4.34168 13.2304L6.72668 10.8454C6.94391 10.6282 6.94391 10.2771 6.72668 10.0599C6.50946 9.84266 6.15835 9.84266 5.94113 10.0599Z" fill="black"/>
</g>
<defs>
<clipPath id="clip0_476_4521">
<rect width="13.3333" height="13.3333" fill="white" transform="translate(0.222656 0.222656)"/>
</clipPath>
</defs>
</svg>
